<?xml version="1.0" encoding="UTF-8"?>
<svg id="Layer_2" xmlns="http://www.w3.org/2000/svg" xmlns:xlink="http://www.w3.org/1999/xlink" viewBox="0 0 510.15 159.55">
  <defs>
    <style>
      .cls-1 {
        fill: #fff;
      }

      .cls-2 {
        fill: url(#radial-gradient);
      }
    </style>
    <radialGradient id="radial-gradient" cx="-6197.87" cy="-10973.63" fx="-6197.87" fy="-10973.63" r="50.32" gradientTransform="translate(-5738.04 -10923.31) rotate(-180)" gradientUnits="userSpaceOnUse">
      <stop offset="0" stop-color="#fddf4a"/>
      <stop offset=".19" stop-color="#fcd947"/>
      <stop offset=".43" stop-color="#fbc93f"/>
      <stop offset=".7" stop-color="#f8b032"/>
      <stop offset=".98" stop-color="#f58c20"/>
      <stop offset="1" stop-color="#f58a1f"/>
    </radialGradient>
  </defs>
  <g id="Layer_1-2" data-name="Layer_1">
    <g>
      <path class="cls-2" d="M422.97,39.52c3.22,2.89,4.83,6.86,4.82,10.82h21.23c0-.83-.23-1.65-.7-2.37l-6.06-9.29c-2.54-3.89,2.05-8.48,5.94-5.94l9.29,6.06c1.43.93,3.27.93,4.69,0l9.29-6.06c3.89-2.54,8.48,2.05,5.94,5.94l-6.06,9.29c-.47.72-.7,1.55-.7,2.37h21.23c0-3.97,1.6-7.94,4.82-10.82l11.43-10.25c2.15-1.93,2.65-5.03,1.2-7.53-1.11-1.92-3.1-3.03-5.21-3.03-.63,0-1.28.1-1.91.31l-16.4,5.37s-.05-.01-.04-.04l5.29-16.16c.92-2.81-.16-5.99-2.74-7.42-.93-.52-1.94-.77-2.94-.77-1.67,0-3.3.7-4.49,2.02l-10.25,11.43c-5.76,6.43-15.83,6.43-21.59,0l-10.25-11.43c-1.19-1.33-2.82-2.02-4.49-2.02-1,0-2.01.25-2.94.77-2.59,1.43-3.66,4.61-2.74,7.42l5.29,16.16s-.02.05-.04.04l-16.4-5.37c-.63-.21-1.28-.31-1.91-.31-2.11,0-4.1,1.11-5.21,3.03-1.45,2.5-.95,5.6,1.2,7.53l11.43,10.25Z"/>
      <path class="cls-1" d="M42.81,102.93c-20.79-5.1-26.83-7.8-26.83-15.85,0-11.49,13.63-12.39,17.8-12.39,3.66,0,7.52.11,10.88,1.41,3.8,1.44,7.19,3.65,9.52,6.22l.21.2c.19.15.37.32.54.49.37.35.78.75,1.37,1.1,2.75,1.53,6.39.72,8.44-1.84,1.77-2.09,2.3-4.92,1.4-7.33-1.7-4.98-6.99-9.58-14.14-12.31-5.2-2.06-11.67-3.19-18.22-3.19-14.82,0-25.2,5.73-30.86,17.05-2.46,5.04-3.52,15.95.89,23.29,2.92,4.98,8.1,8.96,15.36,11.83,5.78,2.44,11.81,3.86,16.94,4.93,8.47,1.76,17.45,4.51,19.81,11.51.74,2.14.62,4.76-.33,7.19-2.05,5.24-7.44,7.39-11.6,8.28-4.31.91-9.69.99-14.73.22-7.52-1.25-12.77-3.81-16.01-7.76l-.23-.31c-.72-.97-1.53-2.07-2.9-2.83-2.42-1.21-5.15-.81-7.31,1.08-2.41,2.11-3.42,5.55-2.45,8.38,1.61,4.56,5.38,8.5,10.83,11.35,4.12,2.35,9.54,4.14,15.7,5.17,3.09.48,6.41.73,9.58.73,10.12,0,30.22-4.74,33.83-22.68,2.37-11.86-.48-27.38-27.51-33.94Z"/>
      <path class="cls-1" d="M156.52,69.19c0-4.34-3.4-7.74-7.74-7.74h-63.44c-4.34,0-7.74,3.4-7.74,7.74s3.4,7.74,7.74,7.74h24.04v73c0,4.34,3.4,7.74,7.74,7.74s7.74-3.47,7.74-7.74v-73h23.92c4.34,0,7.74-3.4,7.74-7.74Z"/>
      <path class="cls-1" d="M200.74,65.98c-1.12-2.67-3.99-4.53-7-4.53s-5.68,1.66-7.1,4.49l-37.21,80.78c-1.88,4.33-1.22,8.05,1.78,9.97,1.18.73,2.48,1.09,3.79,1.09,2.14,0,4.32-.94,6.13-2.75,4.53-4.41,10.58-9.12,16.15-12.58,5.36-3.28,11.1-5.54,17.09-6.72,6.18-1.37,12.53-1.47,18.91-.29,1.31.24,2.41,1.15,2.95,2.37l6.92,15.45c1.99,3.84,6.4,5.47,10.34,3.76,3.82-1.83,5.51-6.35,3.83-10.32l-36.59-80.72ZM205.74,114.43c1.23,2.7-.69,5.74-3.66,5.87-3.59.15-7.06.6-10.37,1.33-2.24.44-4.68,1.1-7.19,1.92-3.46,1.13-6.61-2.41-5.06-5.7l10.32-21.98c1.5-3.21,6.07-3.18,7.54.05l8.42,18.52Z"/>
      <path class="cls-1" d="M370.82,142.19h-30.21v-73c0-4.34-3.4-7.74-7.74-7.74s-7.74,3.47-7.74,7.74v80.74c0,4.27,3.47,7.74,7.74,7.74h37.95c4.34,0,7.74-3.4,7.74-7.74s-3.4-7.74-7.74-7.74Z"/>
      <path class="cls-1" d="M399.47,61.45c-4.2,0-7.74,3.54-7.74,7.74v80.74c0,4.27,3.47,7.74,7.74,7.74s7.74-3.4,7.74-7.74v-80.74c0-4.27-3.47-7.74-7.74-7.74Z"/>
      <path class="cls-1" d="M491.55,61.45h-63.44c-4.34,0-7.74,3.4-7.74,7.74s3.4,7.74,7.74,7.74h24.04v73c0,4.34,3.4,7.74,7.74,7.74s7.74-3.47,7.74-7.74v-73h23.92c4.34,0,7.74-3.4,7.74-7.74s-3.4-7.74-7.74-7.74Z"/>
      <path class="cls-1" d="M309.52,146.06c-5.42-8.27-12.75-13.65-20.71-17.4,1.29-1.15,2.51-2.41,3.63-3.77,5.59-6.83,8.66-15.9,8.66-25.55,0-18.61-11.97-37.45-34.85-37.45h-26.75c-4.27,0-7.74,3.46-7.74,7.74v20.91c0,4.27,3.46,7.74,7.74,7.74s7.74-3.46,7.74-7.74v-13.17h19.01c15.29,0,19.37,13.81,19.37,21.97,0,6-1.88,11.74-5.16,15.75-3.56,4.36-8.54,6.56-14.79,6.56-.07,0-.14,0-.21.01-.18,0-.36,0-.54.03-.11.01-.22.03-.33.05-.14.02-.28.04-.42.06-.15.03-.29.07-.44.1-.09.02-.19.04-.28.07-.17.05-.33.11-.5.17-.07.02-.13.05-.2.07-.17.07-.34.15-.5.23-.06.03-.11.05-.17.08-.16.08-.31.18-.47.27-.06.04-.12.07-.18.11-.14.09-.27.19-.41.29-.07.05-.14.1-.21.15-.11.09-.22.19-.33.29-.08.07-.16.14-.23.21-.09.09-.18.19-.27.28-.08.09-.17.18-.25.27-.08.09-.15.19-.22.28-.08.1-.16.2-.23.31-.07.1-.13.21-.2.31-.07.11-.14.21-.2.33-.07.12-.13.25-.19.38-.05.1-.1.19-.14.29-.07.16-.13.32-.19.49-.03.07-.06.15-.08.22-.06.19-.11.39-.16.59-.01.05-.03.1-.04.15,0,0,0,.01,0,.02-.04.17-.06.35-.09.52-.01.09-.03.18-.04.27-.01.1-.01.2-.02.3-.01.17-.02.33-.03.5,0,0,0,.02,0,.02,0,.06,0,.12,0,.17,0,.2.01.39.03.58,0,.09.02.17.04.26.02.16.04.33.07.49.02.12.06.23.08.35.03.12.06.25.1.37.04.14.09.27.14.41.04.1.07.2.11.29.06.14.12.28.19.42.04.09.08.17.12.26.07.13.15.26.22.39.05.09.1.18.16.26.08.11.16.22.24.33.07.09.13.19.21.27.08.09.16.18.24.27.09.1.17.2.26.29.08.08.16.15.23.22.1.1.21.2.32.29.08.07.16.13.24.19.12.09.23.18.35.26.09.06.18.12.28.18.12.07.23.15.35.21.12.06.24.12.36.18.1.05.2.1.31.15.16.07.32.13.48.18.08.03.15.06.23.08.19.06.39.11.59.16.05.01.1.03.15.04.02,0,.04,0,.05.01.01,0,.02,0,.03,0,12.69,2.75,25.39,6.79,32.46,17.57,1.49,2.27,3.96,3.5,6.48,3.5,1.46,0,2.93-.41,4.24-1.27,3.57-2.34,4.57-7.14,2.23-10.72Z"/>
    </g>
  </g>
</svg>